<svg xmlns="http://www.w3.org/2000/svg" viewBox="0 0 104.65 88.58"><title>medium_logo</title><g id="Layer_2" data-name="Layer 2"><g id="primary_Logo" data-name="primary Logo"><g id="_Group_" data-name="&lt;Group&gt;"><g id="_Group_2" data-name="&lt;Group&gt;"><path id="_Path_" data-name="&lt;Path&gt;" d="M72.67.36a1.84,1.84,0,0,0-2.9,1.79V73L98.86,87.58c3.2,1.6,5.8.48,5.8-2.5V16.82a.75.75,0,0,0-.42-.68Z" fill="#d0d2d3"/><path id="_Path_2" data-name="&lt;Path&gt;" d="M34.88,55.59,68.07,1.67A3.61,3.61,0,0,1,72.67.36l31.61,15.8a.39.39,0,0,1,.16.55L69.77,73Z" fill="#a6a8ab"/><path id="_Path_3" data-name="&lt;Path&gt;" d="M4.83,1.32C2.17,0,1.27,1,2.83,3.51L34.88,55.59,69.77,73,35,16.47a.5.5,0,0,0-.2-.19Z" fill="#808184"/><path id="_Path_4" data-name="&lt;Path&gt;" d="M34.88,85.08c0,3-2.17,4.31-4.83,3L2.9,74.49A5.76,5.76,0,0,1,0,69.8V3.23C0,.85,1.74-.22,3.86.84L34.7,16.25a.34.34,0,0,1,.19.3Z" fill="#58595b"/></g></g></g></g></svg>