<svg xmlns="http://www.w3.org/2000/svg" viewBox="0 0 320.1 270.17"><title>reddit_logo</title><g id="Layer_2" data-name="Layer 2"><g id="primary_Logo" data-name="primary Logo"><g id="epCDeN.tif"><path d="M188.94,17.65,168.29,76.37c12,1.81,23.78,3.17,35.35,5.4a157,157,0,0,1,51.95,19.95c2.32,1.4,3.83,1.42,6.16-.18,17.09-11.75,39.15-8.21,51.13,8s8.76,38-7.4,51.33a6.59,6.59,0,0,0-2.29,4.8c2.49,24.66-7.14,44.58-24.07,61.52-16.76,16.77-37.21,27.43-59.73,34-47,13.75-93.44,12-138.78-7.27C65,247.31,50.88,238.18,39.1,225.83,22.82,208.76,13.65,189,16.51,164.76c.17-1.42-1.42-3.44-2.72-4.58C2.25,150-2.48,137.42,1.25,122.49,4.87,108,14.52,98.81,29.1,95.46c10.37-2.38,20.12-.26,29.1,5.67,1.39.92,4.18,1.31,5.5.53,27.07-15.9,56.58-23,87.64-24.44,3.39-.16,4.84-1.17,5.94-4.37,7.38-21.39,15-42.7,22.53-64,.55-1.54,1.16-3.06,1.82-4.81L243.26,18.7c4.78-9.53,11.89-16,22.5-18.14,15.76-3.15,31.78,7.35,35.08,23.08a30.31,30.31,0,0,1-23.67,36c-16.09,3.16-32.45-7.5-35.06-23.55-.83-5.08-3-6.65-7.58-7.66C219.45,25.15,204.47,21.37,188.94,17.65ZM159.8,259.48c14.17-1.86,28.51-2.9,42.48-5.76,26.21-5.36,50.24-15.78,69.43-35.14,27.13-27.37,27.05-62.61.06-90.14A110.25,110.25,0,0,0,235.5,104c-46.4-19.57-93.51-20.54-141-4.2-20.31,7-38.39,17.83-52.16,34.76-19.77,24.3-19.72,53.47,0,77.86C51.49,223.77,63,232.27,75.78,239,102,252.73,130.24,258.21,159.8,259.48ZM271.56,11.68a18.35,18.35,0,0,0-18.64,18.15,18.51,18.51,0,1,0,37,.3A18.43,18.43,0,0,0,271.56,11.68ZM299.4,150.25a24.67,24.67,0,0,0,3.74-34.36c-8.23-10.6-23.27-13-34-5C282.37,121.49,293.1,134,299.4,150.25ZM20.32,150c6.34-16.4,17.23-28.74,30.36-39.38A24.9,24.9,0,0,0,20.32,150Z"/><path d="M159.8,259.48c-29.56-1.27-57.76-6.75-84-20.5-12.82-6.71-24.29-15.2-33.44-26.54-19.67-24.39-19.72-53.56,0-77.86,13.77-16.93,31.85-27.76,52.16-34.76,47.44-16.34,94.55-15.36,141,4.2a110.25,110.25,0,0,1,36.26,24.42c27,27.54,27.08,62.77-.06,90.14-19.19,19.36-43.22,29.78-69.43,35.14C188.31,256.59,174,257.62,159.8,259.48ZM113.9,179a22.59,22.59,0,1,0-22.43-22.67A22.65,22.65,0,0,0,113.9,179Zm117.33-22.49A22.6,22.6,0,1,0,208.71,179,22.43,22.43,0,0,0,231.24,156.56Zm-71.67,78.7c5.3-.46,10.64-.67,15.89-1.44,13.36-2,25.89-6.12,36.46-14.93,2.91-2.43,4.18-5.43,1.51-8.67s-5.59-2.76-8.77-.39c-24.78,18.45-63.78,18.26-89.17-.38-2.86-2.1-5.66-2.14-8,.44s-2.25,5.69.3,8a56.83,56.83,0,0,0,9.54,7.15C130.33,232.61,144.7,234.86,159.56,235.26Z" fill="#fff"/><path d="M271.56,11.68a18.43,18.43,0,0,1,18.38,18.45,18.51,18.51,0,1,1-37-.3A18.35,18.35,0,0,1,271.56,11.68Z" fill="#fff"/><path d="M299.4,150.25c-6.3-16.27-17-28.75-30.22-39.36,10.69-7.94,25.73-5.59,34,5A24.67,24.67,0,0,1,299.4,150.25Z" fill="#fff"/><path d="M20.32,150a24.9,24.9,0,0,1,30.36-39.38C37.56,121.26,26.66,133.6,20.32,150Z" fill="#fff"/><path d="M113.9,179a22.59,22.59,0,1,1,22.92-22.23A22.53,22.53,0,0,1,113.9,179Z"/><path d="M231.24,156.56a22.6,22.6,0,1,1-45.2-.43,22.6,22.6,0,0,1,45.2.43Z"/><path d="M159.56,235.26c-14.87-.4-29.23-2.65-42.28-10.21a56.83,56.83,0,0,1-9.54-7.15c-2.56-2.32-2.71-5.41-.3-8s5.19-2.53,8-.44c25.39,18.64,64.39,18.83,89.17.38,3.18-2.37,6.17-2.76,8.77.39s1.4,6.25-1.51,8.67c-10.58,8.81-23.11,13-36.46,14.93C170.2,234.59,164.86,234.79,159.56,235.26Z"/></g></g></g></svg>