<svg xmlns="http://www.w3.org/2000/svg" viewBox="0 0 1016.62 131.38"><title>equation</title><g id="Layer_2" data-name="Layer 2"><g id="Layer_1-2" data-name="Layer 1"><path d="M111.5,42.56l-4-11,2.81-6.32a2.17,2.17,0,0,0-.43-2.4l-7.62-7.75a12.28,12.28,0,0,0-12.79-3l-2.13.74L75.67.13,55.9,0h-.13L35.87.14,24.22,12.9l-2.07-.73a12.31,12.31,0,0,0-12.92,3L1.45,23.05A1.73,1.73,0,0,0,1.11,25L4,31.53l-4,11,2.59,9.91,11.78,45.2a23,23,0,0,0,8.86,12.91S37.59,120.73,51.76,130a6.31,6.31,0,0,0,7.9,0c15.94-10.46,28.55-19.42,28.55-19.42a23,23,0,0,0,8.87-12.9L108.9,52.48Z" fill="#ff5000"/><path d="M59,81.59a16.85,16.85,0,0,0-2.33-.85h-1.4a16.85,16.85,0,0,0-2.33.85l-3.53,1.47c-1.12.47-2.92,1.31-4,1.87l-6.5,3.4a1.25,1.25,0,0,0-.16,2.31l5.63,4c1,.71,2.55,1.94,3.47,2.73l1.59,1.38,3.32,2.92,1.5,1.34a2.57,2.57,0,0,0,3.31,0l1.58-1.39,3.32-2.91,1.6-1.4c.91-.8,2.47-2,3.46-2.75l5.65-4.06a1.24,1.24,0,0,0-.17-2.3L66.5,84.93c-1.08-.55-2.88-1.39-4-1.86Z" fill="#fff"/><path d="M99,45.06l.18-.59A15.64,15.64,0,0,0,99,42.11a19.92,19.92,0,0,0-2.08-4L93.3,32.72c-.68-1-1.85-2.61-2.6-3.57l-4.91-6.2a17.2,17.2,0,0,0-1.46-1.72h-.1s-1,.17-2.18.4l-7.51,1.45-3.29.63A8.52,8.52,0,0,1,68,23.25L62.1,21.31c-1.16-.38-3.07-.91-4.25-1.19A9,9,0,0,0,56,20a9,9,0,0,0-1.87.1c-1.18.28-3.1.81-4.25,1.18l-5.93,1.93a8.52,8.52,0,0,1-3.22.47l-3.29-.64-7.51-1.46c-1.19-.23-2.18-.41-2.18-.41h-.1a17.2,17.2,0,0,0-1.46,1.71l-4.92,6.2c-.76,1-1.93,2.56-2.61,3.56L15,38.1A29,29,0,0,0,13.24,41a13.29,13.29,0,0,0-.5,3.43l.18.59a8.45,8.45,0,0,0,.34,1.12c.76,1,2.06,2.46,2.88,3.34L29,63.23a3.72,3.72,0,0,1,.65,3.65l-2.11,5a6.53,6.53,0,0,0-.1,4.11l.43,1.17A11.21,11.21,0,0,0,31.26,82l2,1.66a3.79,3.79,0,0,0,3.7.45l7.17-3.43a18.22,18.22,0,0,0,3.63-2.44L53.54,73a2.32,2.32,0,0,0,.12-3.32l-12.95-8.8a2.53,2.53,0,0,1-.79-3.2l5-9.51a5,5,0,0,0,.25-3.77,5.75,5.75,0,0,0-2.85-2.61l-15.74-6c-1.14-.43-1.07-.88.14-1L36,34a14.21,14.21,0,0,1,4.33.39l8,2.27a2.48,2.48,0,0,1,1.73,2.77L46.9,56.8a9,9,0,0,0-.16,2.93c.13.41,1.21,1,2.4,1.22L54,62a11.91,11.91,0,0,0,4.32,0l4.41-1c1.19-.27,2.26-.83,2.39-1.24A9,9,0,0,0,65,56.81l-3.16-17.4a2.48,2.48,0,0,1,1.73-2.77l8-2.26A14.21,14.21,0,0,1,75.94,34l9.24.88c1.21.12,1.27.56.13,1l-15.75,6a5.75,5.75,0,0,0-2.86,2.6A5,5,0,0,0,67,48.23l5,9.52a2.53,2.53,0,0,1-.8,3.19l-13,8.79a2.32,2.32,0,0,0,.12,3.32l5.75,5.22a18.22,18.22,0,0,0,3.63,2.44l7.17,3.44a3.79,3.79,0,0,0,3.7-.45l2-1.66A11.21,11.21,0,0,0,84,77.22L84.46,76a6.53,6.53,0,0,0-.1-4.11l-2.11-5a3.72,3.72,0,0,1,.65-3.65L95.76,49.52c.83-.89,2.13-2.39,2.89-3.34A8.44,8.44,0,0,0,99,45.06Z" fill="#fff"/><path d="M375.59,18.81a9.3,9.3,0,0,1,1.87.18,4.54,4.54,0,0,1,1.57.63,3.34,3.34,0,0,1,1.09,1.17,3.78,3.78,0,0,1-.33,4,3.47,3.47,0,0,1-.84.79,3.12,3.12,0,0,1-1.09.45v0a3.63,3.63,0,0,1,2.37,1.22,3.74,3.74,0,0,1,.88,2.53,6.08,6.08,0,0,1-.06.83,4,4,0,0,1-.82,1.91,3.31,3.31,0,0,1-1,.83,5.94,5.94,0,0,1-1.51.58,8.87,8.87,0,0,1-2.14.23h-6.51V18.81Zm0,6.75a5.08,5.08,0,0,0,1.53-.21,3.21,3.21,0,0,0,1.08-.56,2.32,2.32,0,0,0,.65-.83,2.44,2.44,0,0,0,.21-1q0-2.89-3.47-2.89h-5v5.5Zm0,7.4a8.26,8.26,0,0,0,1.55-.14,3.56,3.56,0,0,0,1.29-.51,2.62,2.62,0,0,0,.88-1,3.3,3.3,0,0,0,.32-1.54,2.56,2.56,0,0,0-1-2.23,5.16,5.16,0,0,0-3-.74h-5V33Z" fill="#fff"/><path d="M390.9,18.81l6,15.4h-1.57l-1.88-4.79h-7l-1.86,4.79h-1.55l6.19-15.4ZM393,28.17l-3-7.89-3.08,7.89Z" fill="#fff"/><path d="M409.14,18.81v1.25h-5.37V34.2h-1.47V20.06H397V18.81Z" fill="#fff"/><polygon points="399.27 112.78 336.01 76.35 272.95 112.78 399.27 112.78" fill="#662d91"/><polygon points="336.22 2.62 336.19 75.64 399.56 111.92 336.22 2.62" fill="#9e1f63"/><polygon points="272.23 112.06 335.68 75.94 335.83 2.92 272.23 112.06" fill="#ff5000"/><polygon points="336.06 46.91 310.63 90.6 362.09 90.6 336.06 46.91" fill="#fff" stroke="#ff5000" stroke-miterlimit="10" stroke-width="0.83"/><path d="M197.81,90.19V69.93H177.7V61.47h20.11V41.36h8.57V61.47h20.11v8.47H206.38V90.19Z" fill="#fff"/><path d="M578.56,99l23.36-60.82h8.67L635.48,99h-9.17l-7.09-18.42H593.78L587.1,99ZM596.1,74h20.62l-6.35-16.84q-2.9-7.67-4.31-12.61a77.56,77.56,0,0,1-3.28,11.62Z" fill="#fff"/><path d="M660.74,99V38.15H669L700.94,85.9V38.15h7.72V99H700.4L668.46,51.18V99Z" fill="#fff"/><path d="M751.39,84.78l7.72,1a18.82,18.82,0,0,1-6.76,10.5Q747.41,100,739.73,100q-9.67,0-15.33-6t-5.66-16.7q0-11.12,5.73-17.26t14.85-6.14a18.84,18.84,0,0,1,14.44,6q5.6,6,5.6,16.93,0,.67,0,2H726.46q.41,7.26,4.11,11.12a12.22,12.22,0,0,0,9.21,3.86,11.43,11.43,0,0,0,7-2.16A14.33,14.33,0,0,0,751.39,84.78ZM726.87,72.71h24.6q-.5-5.56-2.82-8.34a11.45,11.45,0,0,0-9.25-4.31,11.86,11.86,0,0,0-8.65,3.44A13.63,13.63,0,0,0,726.87,72.71Z" fill="#fff"/><path d="M776.62,99,763.13,54.91h7.72l7,25.43,2.61,9.46q.17-.7,2.28-9.09l7-25.8h7.68L804,80.47l2.2,8.42,2.53-8.5,7.55-25.47h7.26L809.81,99H802l-7-26.39-1.7-7.51L784.42,99Z" fill="#fff"/><path d="M854.4,99V38.15h21a50.82,50.82,0,0,1,10.83.87,20.6,20.6,0,0,1,8.92,4.36,24.75,24.75,0,0,1,7.2,10.39,40.78,40.78,0,0,1,2.39,14.46,42.47,42.47,0,0,1-1.62,12.28,29.79,29.79,0,0,1-4.15,8.86,22,22,0,0,1-5.54,5.52,22.56,22.56,0,0,1-7.26,3,41.45,41.45,0,0,1-9.77,1Zm8-7.18h13a31.5,31.5,0,0,0,9.44-1.12,13.49,13.49,0,0,0,5.46-3.15,19.2,19.2,0,0,0,4.46-7.7,37.64,37.64,0,0,0,1.6-11.72q0-9.54-3.13-14.67a15.76,15.76,0,0,0-7.61-6.87q-3.24-1.25-10.41-1.25H862.45Z" fill="#fff"/><path d="M945,84.78l7.72,1a18.82,18.82,0,0,1-6.76,10.5Q941,100,933.31,100q-9.67,0-15.33-6t-5.66-16.7q0-11.12,5.73-17.26t14.85-6.14a18.84,18.84,0,0,1,14.44,6q5.6,6,5.6,16.93,0,.67,0,2H920q.41,7.26,4.11,11.12a12.22,12.22,0,0,0,9.21,3.86,11.43,11.43,0,0,0,7-2.16A14.33,14.33,0,0,0,945,84.78ZM920.45,72.71h24.6q-.5-5.56-2.82-8.34A11.45,11.45,0,0,0,933,60.05a11.86,11.86,0,0,0-8.65,3.44A13.63,13.63,0,0,0,920.45,72.71Z" fill="#fff"/><path d="M990.82,93.54a27.82,27.82,0,0,1-8,5,23.08,23.08,0,0,1-8.24,1.45q-7.26,0-11.16-3.55a11.71,11.71,0,0,1-3.9-9.06A12.05,12.05,0,0,1,961,81.44a12.18,12.18,0,0,1,3.86-4.29,18.14,18.14,0,0,1,5.37-2.45,53.6,53.6,0,0,1,6.64-1.12A68.21,68.21,0,0,0,990.19,71q0-1.53,0-1.95,0-4.56-2.12-6.43-2.86-2.53-8.5-2.53-5.27,0-7.78,1.85t-3.71,6.53l-7.3-1a18.08,18.08,0,0,1,3.28-7.57,14.36,14.36,0,0,1,6.6-4.44,29.42,29.42,0,0,1,10-1.56,26.47,26.47,0,0,1,9.17,1.33A12.08,12.08,0,0,1,995,58.58a11.74,11.74,0,0,1,2.32,5.08,42,42,0,0,1,.37,6.89v10a105.65,105.65,0,0,0,.48,13.17,16.62,16.62,0,0,0,1.89,5.29h-7.8A15.8,15.8,0,0,1,990.82,93.54Zm-.62-16.68A54.68,54.68,0,0,1,978,79.68a28.21,28.21,0,0,0-6.51,1.49,6.49,6.49,0,0,0-2.95,2.43,6.6,6.6,0,0,0,1.22,8.53q2.26,2,6.62,2a15.39,15.39,0,0,0,7.67-1.89A11.62,11.62,0,0,0,989,87.06a18,18,0,0,0,1.2-7.47Z" fill="#fff"/><path d="M1009.15,99V38.15h7.47V99Z" fill="#fff"/><path d="M506.12,62.66H457.41V54.2h48.71Zm0,22.39H457.41V76.59h48.71Z" fill="#fff"/></g></g></svg>