<svg xmlns="http://www.w3.org/2000/svg" viewBox="0 0 87.85 91.18"><title>PLAYBUTTON2</title><g id="Layer_2" data-name="Layer 2"><g id="Layer_1-2" data-name="Layer 1"><path d="M83.32,61.61,45.81,63.52a34.82,34.82,0,0,1-3.53,0L4.53,61.61A4.54,4.54,0,0,1,0,57.08V6.48A4.54,4.54,0,0,1,4.53,2L41,0a34.82,34.82,0,0,1,3.53,0L83.32,2a4.54,4.54,0,0,1,4.53,4.53v50.6A4.54,4.54,0,0,1,83.32,61.61Z" fill="#231f20"/><polygon points="61.23 31.18 34.07 15.37 34.07 47.36 61.23 31.18" fill="#ff5000"/><path d="M16.69,78.09l4.17,11.49h0L25,78.09h1.29L21.56,90.93H20.14L15.4,78.09Z" fill="#fff"/><path d="M30.21,78.09V90.93H29V78.09Z" fill="#fff"/><path d="M38.77,78.09a6,6,0,0,1,4.41,1.65,6.74,6.74,0,0,1,1.48,4.77,6.74,6.74,0,0,1-1.48,4.77,6,6,0,0,1-4.41,1.65H34.33V78.09Zm-.61,11.79a8.43,8.43,0,0,0,2.38-.3,3.82,3.82,0,0,0,1.65-.94,3.89,3.89,0,0,0,1-1.67,10.08,10.08,0,0,0,0-4.93,3.89,3.89,0,0,0-1-1.67,3.82,3.82,0,0,0-1.65-.94,8.43,8.43,0,0,0-2.38-.3H35.55V89.89Z" fill="#fff"/><path d="M56.95,78.09v1H49.31v4.64h7.16v1H49.31v5.07H57v1h-9V78.09Z" fill="#fff"/><path d="M59.88,82A6.32,6.32,0,0,1,61,79.84a5.45,5.45,0,0,1,1.9-1.47,6.06,6.06,0,0,1,2.65-.55,6,6,0,0,1,2.64.55,5.47,5.47,0,0,1,1.89,1.47A6.32,6.32,0,0,1,71.22,82a8.69,8.69,0,0,1,0,5.07,6.21,6.21,0,0,1-1.13,2.12,5.51,5.51,0,0,1-1.89,1.47,6,6,0,0,1-2.64.55,6.06,6.06,0,0,1-2.65-.55A5.49,5.49,0,0,1,61,89.17,6.21,6.21,0,0,1,59.88,87a8.69,8.69,0,0,1,0-5.07ZM61,86.57a5.54,5.54,0,0,0,.86,1.82,4.35,4.35,0,0,0,1.5,1.29,4.62,4.62,0,0,0,2.19.49,4.58,4.58,0,0,0,2.18-.49,4.38,4.38,0,0,0,1.49-1.29,5.54,5.54,0,0,0,.86-1.82,7.79,7.79,0,0,0,0-4.13,5.55,5.55,0,0,0-.86-1.81,4.38,4.38,0,0,0-1.49-1.29,4.58,4.58,0,0,0-2.18-.49,4.62,4.62,0,0,0-2.19.49,4.35,4.35,0,0,0-1.5,1.29A5.55,5.55,0,0,0,61,82.44a7.79,7.79,0,0,0,0,4.13Z" fill="#fff"/></g></g></svg>