<svg xmlns="http://www.w3.org/2000/svg" viewBox="0 0 748.73 62.88"><title>type</title><g id="Layer_2" data-name="Layer 2"><g id="Layer_1-2" data-name="Layer 1"><path d="M6.19,12.38H9.72V39.15h.19a13.78,13.78,0,0,1,3-4.55,18.25,18.25,0,0,1,4.39-3.29,20.9,20.9,0,0,1,5.35-2,26.71,26.71,0,0,1,5.92-.65,23.37,23.37,0,0,1,9.41,1.73,18.72,18.72,0,0,1,6.63,4.76,19.51,19.51,0,0,1,4,7.06,28.4,28.4,0,0,1,1.29,8.7q0,8-2.39,12.78a20.59,20.59,0,0,1-5.73,7.36,18,18,0,0,1-7,3.38,28.82,28.82,0,0,1-6.21.82,21.87,21.87,0,0,1-8.26-1.39,20.65,20.65,0,0,1-5.59-3.25,16.48,16.48,0,0,1-3.34-3.68,14.14,14.14,0,0,1-1.43-2.68H9.72v10H6.19Zm22.34,60a15.59,15.59,0,0,0,13.66-6.89,21.16,21.16,0,0,0,3.06-6.93,31.76,31.76,0,0,0,1-7.67,23.64,23.64,0,0,0-1.1-7.19,18.42,18.42,0,0,0-3.34-6.19,16.81,16.81,0,0,0-5.54-4.37,17,17,0,0,0-7.69-1.65A21.52,21.52,0,0,0,20.22,33a15.65,15.65,0,0,0-5.83,4.07A17.12,17.12,0,0,0,11,43.22a24.92,24.92,0,0,0-1.15,7.71,30.44,30.44,0,0,0,1.05,8,20,20,0,0,0,3.3,6.89,16.6,16.6,0,0,0,5.78,4.81A18.61,18.61,0,0,0,28.54,72.41Z" transform="translate(-6.19 -12.38)" fill="#fff"/><path d="M90.79,65.39H90.6a13.47,13.47,0,0,1-2.48,3.77,17.16,17.16,0,0,1-4,3.16,20.61,20.61,0,0,1-5.29,2.17,25.38,25.38,0,0,1-6.48.78q-7.81,0-12.1-3.07T56,62.71a10.91,10.91,0,0,1,1.71-6.37,12.49,12.49,0,0,1,4.33-3.9,19.76,19.76,0,0,1,5.81-2q3.19-.6,6.14-.87l5.62-.43a36.12,36.12,0,0,0,6.14-.82,8.14,8.14,0,0,0,3.38-1.56,4.31,4.31,0,0,0,1.43-2.55,22.06,22.06,0,0,0,.29-3.9,7.62,7.62,0,0,0-.76-3.38,7.74,7.74,0,0,0-2.38-2.77,12.29,12.29,0,0,0-4.19-1.91,24.54,24.54,0,0,0-6.29-.69q-6.57,0-10.62,2.94t-4.43,8.92H58.59q.38-7.36,5.19-11t13.67-3.68q8.86,0,12.91,3.16a10,10,0,0,1,4.05,8.27V66c0,.64,0,1.27,0,1.91a5.81,5.81,0,0,0,.33,1.73,2.6,2.6,0,0,0,1,1.26,3.24,3.24,0,0,0,1.9.48,19,19,0,0,0,2.67-.26v2.77a12.47,12.47,0,0,1-3,.35,9.5,9.5,0,0,1-3.48-.52,4.53,4.53,0,0,1-2-1.39,4.86,4.86,0,0,1-.9-2,12.7,12.7,0,0,1-.24-2.55Zm0-16.46a7.08,7.08,0,0,1-4,2,55.16,55.16,0,0,1-6.05.78l-6.1.52q-2.67.26-5.34.74a16.54,16.54,0,0,0-4.81,1.6A9.48,9.48,0,0,0,61,57.64a8.79,8.79,0,0,0-1.33,5.07q0,4.94,3.43,7.32t9.43,2.38q6.19,0,9.81-2a16.82,16.82,0,0,0,5.53-4.68,13.75,13.75,0,0,0,2.43-5.11,20.09,20.09,0,0,0,.52-3.33Z" transform="translate(-6.19 -12.38)" fill="#fff"/><path d="M107.66,59.41a12.7,12.7,0,0,0,1.52,5.5A13.56,13.56,0,0,0,112.66,69a15,15,0,0,0,5,2.55,21.23,21.23,0,0,0,6.19.87,36,36,0,0,0,5.1-.39,19,19,0,0,0,5-1.43,10.33,10.33,0,0,0,3.86-2.9A7.21,7.21,0,0,0,139.38,63a6.67,6.67,0,0,0-2.48-5.63,18,18,0,0,0-6.24-2.94,68.68,68.68,0,0,0-8.1-1.69,45.39,45.39,0,0,1-8.1-1.95,16.7,16.7,0,0,1-6.24-3.68q-2.48-2.38-2.48-7a9,9,0,0,1,1.62-5.5,11.66,11.66,0,0,1,4.14-3.51,20.08,20.08,0,0,1,5.67-1.86,35.63,35.63,0,0,1,6.29-.56,31.34,31.34,0,0,1,7.15.78A16.14,16.14,0,0,1,136.38,32a12.22,12.22,0,0,1,3.81,4.42,14.07,14.07,0,0,1,1.38,6.5H138a11.42,11.42,0,0,0-1.1-5.2,9.29,9.29,0,0,0-3-3.51,13.9,13.9,0,0,0-4.62-2,24.11,24.11,0,0,0-5.72-.65,29.55,29.55,0,0,0-5,.43,15.43,15.43,0,0,0-4.53,1.47,9.89,9.89,0,0,0-3.29,2.69,6.27,6.27,0,0,0-1.29,4,6.36,6.36,0,0,0,1.43,4.33,10.13,10.13,0,0,0,3.76,2.64,27.7,27.7,0,0,0,5.24,1.6l5.86,1.21q3.62.61,6.81,1.43A20.22,20.22,0,0,1,138,53.57a10.66,10.66,0,0,1,3.67,3.68A11.09,11.09,0,0,1,143,63a9.49,9.49,0,0,1-1.81,6,13.58,13.58,0,0,1-4.57,3.77,20.74,20.74,0,0,1-6.15,2,40.38,40.38,0,0,1-6.62.56,28.85,28.85,0,0,1-7.76-1,18.2,18.2,0,0,1-6.24-3,14.64,14.64,0,0,1-4.19-5A15.49,15.49,0,0,1,104,59.41Z" transform="translate(-6.19 -12.38)" fill="#fff"/><path d="M152.62,21.31V12.38h3.62v8.92Zm0,52.92V29.71h3.62V74.22Z" transform="translate(-6.19 -12.38)" fill="#fff"/><path d="M204.64,43.48a11.78,11.78,0,0,0-5.24-8.92,16.94,16.94,0,0,0-5.1-2.25,24,24,0,0,0-6.24-.78,18.52,18.52,0,0,0-8.1,1.69,17.57,17.57,0,0,0-5.91,4.5,19.81,19.81,0,0,0-3.62,6.41,22.57,22.57,0,0,0-1.24,7.41,28.84,28.84,0,0,0,1.14,8.31,18.18,18.18,0,0,0,3.53,6.63,16.17,16.17,0,0,0,5.91,4.37,20.35,20.35,0,0,0,8.29,1.56,18.7,18.7,0,0,0,6.34-1,17.39,17.39,0,0,0,5.14-2.86,15.07,15.07,0,0,0,3.67-4.37,16.67,16.67,0,0,0,1.9-5.59h3.62a19.51,19.51,0,0,1-2.38,7.1,17.78,17.78,0,0,1-4.57,5.24,20.44,20.44,0,0,1-6.29,3.25,26.65,26.65,0,0,1-17.67-.82,19.29,19.29,0,0,1-7-5.24,21.44,21.44,0,0,1-4-7.58,31,31,0,0,1-1.29-9,26.15,26.15,0,0,1,1.48-8.83,21.09,21.09,0,0,1,4.33-7.27,20.48,20.48,0,0,1,7.05-4.94,24,24,0,0,1,9.62-1.82,29.48,29.48,0,0,1,7.48.91,20.23,20.23,0,0,1,6.19,2.73,14.77,14.77,0,0,1,4.43,4.63,15.42,15.42,0,0,1,2.1,6.54Z" transform="translate(-6.19 -12.38)" fill="#fff"/><path d="M249.7,65.39h-.19A13.55,13.55,0,0,1,247,69.16a17.17,17.17,0,0,1-4,3.16,20.58,20.58,0,0,1-5.29,2.17,25.36,25.36,0,0,1-6.48.78q-7.81,0-12.1-3.07t-4.29-9.48a10.93,10.93,0,0,1,1.71-6.37,12.51,12.51,0,0,1,4.34-3.9,19.74,19.74,0,0,1,5.81-2q3.19-.6,6.14-.87l5.62-.43a36.18,36.18,0,0,0,6.15-.82,8.14,8.14,0,0,0,3.38-1.56,4.32,4.32,0,0,0,1.43-2.55,22.27,22.27,0,0,0,.29-3.9A7.59,7.59,0,0,0,249,36.9a7.76,7.76,0,0,0-2.38-2.77,12.32,12.32,0,0,0-4.19-1.91,24.53,24.53,0,0,0-6.29-.69q-6.57,0-10.62,2.94t-4.43,8.92H217.5q.38-7.36,5.19-11t13.67-3.68q8.86,0,12.91,3.16a10,10,0,0,1,4,8.27V66q0,1,0,1.91a5.87,5.87,0,0,0,.33,1.73,2.61,2.61,0,0,0,1,1.26,3.24,3.24,0,0,0,1.91.48,19.05,19.05,0,0,0,2.67-.26v2.77a12.46,12.46,0,0,1-3,.35,9.5,9.5,0,0,1-3.48-.52,4.53,4.53,0,0,1-2-1.39,4.86,4.86,0,0,1-.91-2,12.85,12.85,0,0,1-.24-2.55Zm0-16.46a7.07,7.07,0,0,1-4,2,55.06,55.06,0,0,1-6,.78l-6.1.52q-2.67.26-5.34.74a16.58,16.58,0,0,0-4.81,1.6,9.48,9.48,0,0,0-3.48,3.07,8.79,8.79,0,0,0-1.33,5.07q0,4.94,3.43,7.32t9.43,2.38q6.19,0,9.81-2a16.8,16.8,0,0,0,5.53-4.68,13.75,13.75,0,0,0,2.43-5.11,19.88,19.88,0,0,0,.52-3.33Z" transform="translate(-6.19 -12.38)" fill="#ff5000"/><path d="M282.86,32.56H272.19V63.66a11,11,0,0,0,.67,4.24,4.94,4.94,0,0,0,2,2.38,7.74,7.74,0,0,0,3.33,1,37.33,37.33,0,0,0,4.53.09v2.86a37.25,37.25,0,0,1-5.38,0,11.57,11.57,0,0,1-4.62-1.3,7.91,7.91,0,0,1-3.19-3.25,11.26,11.26,0,0,1-1-6V32.56h-9.05V29.71h9.05V15.85h3.62V29.71h10.67Z" transform="translate(-6.19 -12.38)" fill="#ff5000"/><path d="M303.72,32.56H293.05V63.66a11,11,0,0,0,.67,4.24,4.94,4.94,0,0,0,2,2.38,7.74,7.74,0,0,0,3.33,1,37.33,37.33,0,0,0,4.53.09v2.86a37.25,37.25,0,0,1-5.38,0,11.57,11.57,0,0,1-4.62-1.3,7.91,7.91,0,0,1-3.19-3.25,11.26,11.26,0,0,1-1-6V32.56h-9.05V29.71h9.05V15.85h3.62V29.71h10.67Z" transform="translate(-6.19 -12.38)" fill="#ff5000"/><path d="M310.39,52.4v.52a24.06,24.06,0,0,0,1.15,7.45,18.39,18.39,0,0,0,3.39,6.24,15.85,15.85,0,0,0,5.63,4.24,18.69,18.69,0,0,0,7.88,1.56q7.36,0,11.65-3.51A18,18,0,0,0,346,59.15h3.62q-1.62,7.8-7,12T328.4,75.26a23.46,23.46,0,0,1-9.48-1.78,19.1,19.1,0,0,1-6.76-4.85,19.94,19.94,0,0,1-4-7.28,29.7,29.7,0,0,1-1.33-9.05,29.08,29.08,0,0,1,1.38-9,21.8,21.8,0,0,1,4.14-7.54,20.21,20.21,0,0,1,6.91-5.2A22.74,22.74,0,0,1,329,28.67a22.49,22.49,0,0,1,9.1,1.73,18.93,18.93,0,0,1,6.62,4.72,20.44,20.44,0,0,1,4,6.93,25.38,25.38,0,0,1,1.38,8.44c0,.29,0,.62,0,1s0,.68,0,.91Zm36-2.86a24.43,24.43,0,0,0-1.34-6.89A16.46,16.46,0,0,0,336.23,33a17.32,17.32,0,0,0-7.31-1.47A18.58,18.58,0,0,0,321.18,33,17,17,0,0,0,312,42.79a24.87,24.87,0,0,0-1.53,6.76Z" transform="translate(-6.19 -12.38)" fill="#ff5000"/><path d="M358.5,29.71h3.62v9.53h.19A13.92,13.92,0,0,1,365,34.77a17.57,17.57,0,0,1,4.1-3.33,19,19,0,0,1,5.1-2.08,23,23,0,0,1,5.62-.69,24.3,24.3,0,0,1,7.29,1A14.73,14.73,0,0,1,392,32.13a12.38,12.38,0,0,1,3,3.51,15.33,15.33,0,0,1,1.57,3.94,21.45,21.45,0,0,1,.57,3.85q.09,1.86.09,3.25V74.22h-3.62V46.08a37.92,37.92,0,0,0-.29-4.16,11.84,11.84,0,0,0-1.67-4.81,11.59,11.59,0,0,0-4.19-3.94,15.43,15.43,0,0,0-7.77-1.65,18.75,18.75,0,0,0-7.43,1.39,16,16,0,0,0-5.53,3.85,16.55,16.55,0,0,0-3.48,5.89,22.63,22.63,0,0,0-1.19,7.49V74.22H358.5Z" transform="translate(-6.19 -12.38)" fill="#ff5000"/><path d="M426,32.56H415.28V63.66A11,11,0,0,0,416,67.9a4.94,4.94,0,0,0,2,2.38,7.74,7.74,0,0,0,3.33,1,37.33,37.33,0,0,0,4.53.09v2.86a37.25,37.25,0,0,1-5.38,0,11.57,11.57,0,0,1-4.62-1.3,7.91,7.91,0,0,1-3.19-3.25,11.26,11.26,0,0,1-1-6V32.56h-9.05V29.71h9.05V15.85h3.62V29.71H426Z" transform="translate(-6.19 -12.38)" fill="#ff5000"/><path d="M433.48,21.31V12.38h3.62v8.92Zm0,52.92V29.71h3.62V74.22Z" transform="translate(-6.19 -12.38)" fill="#ff5000"/><path d="M446.34,52a26.8,26.8,0,0,1,1.48-9,22,22,0,0,1,4.33-7.41,20.41,20.41,0,0,1,7.05-5.07,25.79,25.79,0,0,1,19.24,0,20.43,20.43,0,0,1,7.05,5.07A22,22,0,0,1,489.83,43a26.85,26.85,0,0,1,1.48,9,27.21,27.21,0,0,1-1.48,9,21.39,21.39,0,0,1-4.33,7.41,20.67,20.67,0,0,1-7.05,5,25.79,25.79,0,0,1-19.24,0,20.65,20.65,0,0,1-7.05-5A21.39,21.39,0,0,1,447.82,61,27.16,27.16,0,0,1,446.34,52ZM450,52a23.86,23.86,0,0,0,1.24,7.67,20.14,20.14,0,0,0,3.62,6.54,17.29,17.29,0,0,0,5.91,4.55,20.26,20.26,0,0,0,16.2,0,17.33,17.33,0,0,0,5.91-4.55,20.18,20.18,0,0,0,3.62-6.54,24.34,24.34,0,0,0,0-15.33,20.19,20.19,0,0,0-3.62-6.54,17.33,17.33,0,0,0-5.91-4.55,20.27,20.27,0,0,0-16.2,0,17.3,17.3,0,0,0-5.91,4.55,20.15,20.15,0,0,0-3.62,6.54A23.87,23.87,0,0,0,450,52Z" transform="translate(-6.19 -12.38)" fill="#ff5000"/><path d="M499.79,29.71h3.62v9.53h.19a14,14,0,0,1,2.71-4.46,17.58,17.58,0,0,1,4.1-3.33,19,19,0,0,1,5.1-2.08,23.05,23.05,0,0,1,5.62-.69,24.31,24.31,0,0,1,7.29,1,14.74,14.74,0,0,1,4.91,2.51,12.42,12.42,0,0,1,3,3.51,15.39,15.39,0,0,1,1.57,3.94,21.27,21.27,0,0,1,.57,3.85q.09,1.86.1,3.25V74.22h-3.62V46.08a37.84,37.84,0,0,0-.29-4.16A11.87,11.87,0,0,0,533,37.11a11.56,11.56,0,0,0-4.19-3.94A15.42,15.42,0,0,0,521,31.53a18.74,18.74,0,0,0-7.43,1.39,16,16,0,0,0-5.53,3.85,16.53,16.53,0,0,0-3.48,5.89,22.63,22.63,0,0,0-1.19,7.49V74.22h-3.62Z" transform="translate(-6.19 -12.38)" fill="#ff5000"/><path d="M567.24,32.56H556.57V63.66a11,11,0,0,0,.67,4.24,4.94,4.94,0,0,0,2,2.38,7.74,7.74,0,0,0,3.33,1,37.33,37.33,0,0,0,4.53.09v2.86a37.25,37.25,0,0,1-5.38,0,11.57,11.57,0,0,1-4.62-1.3,7.91,7.91,0,0,1-3.19-3.25,11.26,11.26,0,0,1-1-6V32.56H543.9V29.71h9.05V15.85h3.62V29.71h10.67Z" transform="translate(-6.19 -12.38)" fill="#d1d3d4"/><path d="M570.29,52a26.85,26.85,0,0,1,1.48-9,21.93,21.93,0,0,1,4.34-7.41,20.4,20.4,0,0,1,7-5.07,25.79,25.79,0,0,1,19.25,0,20.42,20.42,0,0,1,7,5.07A22,22,0,0,1,613.78,43a26.85,26.85,0,0,1,1.48,9,27.21,27.21,0,0,1-1.48,9,21.39,21.39,0,0,1-4.34,7.41,20.66,20.66,0,0,1-7,5,25.79,25.79,0,0,1-19.25,0,20.64,20.64,0,0,1-7-5A21.36,21.36,0,0,1,571.76,61,27.21,27.21,0,0,1,570.29,52Zm3.62,0a23.86,23.86,0,0,0,1.24,7.67,20.07,20.07,0,0,0,3.62,6.54,17.28,17.28,0,0,0,5.91,4.55,20.26,20.26,0,0,0,16.2,0,17.34,17.34,0,0,0,5.91-4.55,20.18,20.18,0,0,0,3.62-6.54,24.34,24.34,0,0,0,0-15.33,20.19,20.19,0,0,0-3.62-6.54,17.34,17.34,0,0,0-5.91-4.55,20.26,20.26,0,0,0-16.2,0,17.28,17.28,0,0,0-5.91,4.55,20.08,20.08,0,0,0-3.62,6.54A23.87,23.87,0,0,0,573.91,52Z" transform="translate(-6.19 -12.38)" fill="#d1d3d4"/><path d="M623.92,12.38h3.62v41l30.2-23.64H663L641.55,46.34l23,27.89h-5L638.69,48.85l-11.15,8.57v16.8h-3.62Z" transform="translate(-6.19 -12.38)" fill="#d1d3d4"/><path d="M668,52.4v.52a24.06,24.06,0,0,0,1.15,7.45,18.39,18.39,0,0,0,3.39,6.24,15.85,15.85,0,0,0,5.63,4.24,18.69,18.69,0,0,0,7.88,1.56q7.36,0,11.65-3.51a18,18,0,0,0,5.92-9.74h3.62q-1.62,7.8-7,12T686,75.26a23.46,23.46,0,0,1-9.48-1.78,19.1,19.1,0,0,1-6.76-4.85,19.94,19.94,0,0,1-4-7.28,29.7,29.7,0,0,1-1.33-9.05,29.08,29.08,0,0,1,1.38-9,21.8,21.8,0,0,1,4.14-7.54,20.21,20.21,0,0,1,6.91-5.2,22.74,22.74,0,0,1,9.77-1.95,22.49,22.49,0,0,1,9.1,1.73,18.93,18.93,0,0,1,6.62,4.72,20.44,20.44,0,0,1,4,6.93,25.38,25.38,0,0,1,1.38,8.44c0,.29,0,.62,0,1s0,.68,0,.91Zm36-2.86a24.43,24.43,0,0,0-1.34-6.89A16.46,16.46,0,0,0,693.88,33a17.32,17.32,0,0,0-7.31-1.47A18.58,18.58,0,0,0,678.83,33a17,17,0,0,0-9.17,9.74,24.87,24.87,0,0,0-1.53,6.76Z" transform="translate(-6.19 -12.38)" fill="#d1d3d4"/><path d="M716.15,29.71h3.62v9.53H720a14,14,0,0,1,2.71-4.46,17.58,17.58,0,0,1,4.1-3.33,19,19,0,0,1,5.1-2.08,23.05,23.05,0,0,1,5.62-.69,24.31,24.31,0,0,1,7.29,1,14.74,14.74,0,0,1,4.91,2.51,12.42,12.42,0,0,1,3,3.51,15.39,15.39,0,0,1,1.57,3.94,21.27,21.27,0,0,1,.57,3.85q.09,1.86.1,3.25V74.22H751.3V46.08a37.84,37.84,0,0,0-.29-4.16,11.87,11.87,0,0,0-1.67-4.81,11.56,11.56,0,0,0-4.19-3.94,15.42,15.42,0,0,0-7.76-1.65A18.74,18.74,0,0,0,730,32.91a16,16,0,0,0-5.53,3.85A16.53,16.53,0,0,0,721,42.66a22.63,22.63,0,0,0-1.19,7.49V74.22h-3.62Z" transform="translate(-6.19 -12.38)" fill="#d1d3d4"/></g></g></svg>