<?xml version="1.0" encoding="utf-8"?>
<!-- Generator: Adobe Illustrator 20.1.0, SVG Export Plug-In . SVG Version: 6.00 Build 0)  -->
<svg version="1.1" id="Layer_1" xmlns="http://www.w3.org/2000/svg" xmlns:xlink="http://www.w3.org/1999/xlink" x="0px" y="0px"
	 viewBox="0 0 1016.6 131.4" style="enable-background:new 0 0 1016.6 131.4;" xml:space="preserve">
<style type="text/css">
	.st0{fill:#FF5000;}
	.st1{fill:#FFFFFF;}
	.st2{fill:#662D91;}
	.st3{fill:#9E1F63;}
	.st4{fill:#FFFFFF;stroke:#FF5000;stroke-width:0.83;stroke-miterlimit:10;}
</style>
<title>equation</title>
<g id="Layer_2">
	<g id="Layer_1-2">
		<path class="st0" d="M111.5,42.6l-4-11l2.8-6.3c0.4-0.8,0.2-1.8-0.4-2.4l-7.6-7.8c-3.3-3.4-8.3-4.6-12.8-3l-2.1,0.7L75.7,0.1
			L55.9,0h-0.1L35.9,0.1L24.2,12.9l-2.1-0.7c-4.5-1.6-9.6-0.4-12.9,3L1.5,23c-0.5,0.5-0.6,1.3-0.3,2L4,31.5l-4,11l2.6,9.9l11.8,45.2
			c1.4,5.2,4.5,9.8,8.9,12.9c0,0,14.4,10.2,28.5,19.4c2.3,1.9,5.6,1.9,7.9,0c15.9-10.5,28.5-19.4,28.5-19.4
			c4.4-3.1,7.5-7.7,8.9-12.9l11.8-45.2L111.5,42.6z"/>
		<path class="st1" d="M59,81.6c-0.8-0.3-1.5-0.6-2.3-0.8h-1.4c-0.8,0.2-1.6,0.5-2.3,0.8l-3.5,1.5c-1.1,0.5-2.9,1.3-4,1.9l-6.5,3.4
			c-0.7,0.2-1,0.9-0.8,1.6c0.1,0.3,0.3,0.6,0.6,0.7l5.6,4c1,0.7,2.5,1.9,3.5,2.7l1.6,1.4l3.3,2.9l1.5,1.3c1,0.8,2.4,0.8,3.3,0
			l1.6-1.4l3.3-2.9l1.6-1.4c0.9-0.8,2.5-2,3.5-2.8l5.7-4.1c0.6-0.3,0.9-1,0.6-1.7c-0.1-0.3-0.4-0.5-0.7-0.6l-6.5-3.3
			c-1.1-0.6-2.9-1.4-4-1.9L59,81.6z"/>
		<path class="st1" d="M99,45.1l0.2-0.6c0-0.8-0.1-1.6-0.2-2.4c-0.5-1.4-1.2-2.7-2.1-4l-3.6-5.4c-0.7-1-1.8-2.6-2.6-3.6L85.8,23
			c-0.4-0.6-0.9-1.2-1.5-1.7h-0.1c0,0-1,0.2-2.2,0.4l-7.5,1.5l-3.3,0.6c-1.1,0.1-2.2-0.1-3.3-0.5l-5.9-1.9c-1.2-0.4-3.1-0.9-4.2-1.2
			C57.2,20,56.6,20,56,20c-0.6,0-1.3,0-1.9,0.1c-1.2,0.3-3.1,0.8-4.2,1.2L44,23.2c-1,0.4-2.1,0.5-3.2,0.5L37.4,23l-7.5-1.5
			c-1.2-0.2-2.2-0.4-2.2-0.4h-0.1c-0.5,0.5-1,1.1-1.5,1.7l-4.9,6.2c-0.8,1-1.9,2.6-2.6,3.6L15,38.1C14.4,39,13.8,40,13.2,41
			c-0.3,1.1-0.5,2.3-0.5,3.4l0.2,0.6c0.1,0.4,0.2,0.8,0.3,1.1c0.8,1,2.1,2.5,2.9,3.3L29,63.2c0.9,1,1.1,2.4,0.6,3.6l-2.1,5
			c-0.5,1.3-0.5,2.8-0.1,4.1l0.4,1.2c0.7,1.9,1.8,3.6,3.4,4.8l2,1.7c1.1,0.8,2.5,1,3.7,0.4l7.2-3.4c1.3-0.7,2.5-1.5,3.6-2.4l5.8-5.2
			c0.9-0.9,1-2.3,0.2-3.3c0,0,0,0,0,0l-13-8.8c-1-0.7-1.4-2.1-0.8-3.2l5-9.5c0.6-1.2,0.7-2.5,0.2-3.8c-0.6-1.2-1.6-2.1-2.8-2.6
			l-15.7-6c-1.1-0.4-1.1-0.9,0.1-1L36,34c1.5-0.1,2.9,0,4.3,0.4l8,2.3c1.2,0.4,1.9,1.5,1.7,2.8l-3.2,17.4c-0.2,1-0.3,2-0.2,2.9
			c0.1,0.4,1.2,1,2.4,1.2l4.9,1c1.4,0.3,2.9,0.3,4.3,0l4.4-1c1.2-0.3,2.3-0.8,2.4-1.2c0.1-1,0.1-2-0.1-2.9l-3.2-17.4
			c-0.2-1.2,0.5-2.4,1.7-2.8l8-2.3c1.4-0.4,2.9-0.5,4.4-0.4l9.2,0.9c1.2,0.1,1.3,0.6,0.1,1l-15.8,6c-1.2,0.5-2.2,1.4-2.9,2.6
			c-0.4,1.2-0.3,2.6,0.3,3.8l5,9.5c0.6,1.1,0.2,2.5-0.8,3.2l-13,8.8c-0.9,0.9-0.8,2.4,0.1,3.3c0,0,0,0,0,0l5.7,5.2
			c1.1,1,2.3,1.8,3.6,2.4l7.2,3.4c1.2,0.5,2.6,0.3,3.7-0.4l2-1.7c1.6-1.3,2.7-2.9,3.4-4.8l0.5-1.2c0.4-1.3,0.4-2.8-0.1-4.1l-2.1-5
			c-0.4-1.2-0.2-2.6,0.7-3.7l12.9-13.7c0.8-0.9,2.1-2.4,2.9-3.3C98.8,45.8,98.9,45.4,99,45.1z"/>
		<path class="st1" d="M375.6,18.8c0.6,0,1.3,0.1,1.9,0.2c0.6,0.1,1.1,0.3,1.6,0.6c0.5,0.3,0.8,0.7,1.1,1.2c0.7,1.3,0.5,2.8-0.3,4
			c-0.2,0.3-0.5,0.6-0.8,0.8c-0.3,0.2-0.7,0.4-1.1,0.5l0,0c0.9,0.1,1.8,0.5,2.4,1.2c0.6,0.7,0.9,1.6,0.9,2.5c0,0.3,0,0.6-0.1,0.8
			c-0.1,0.7-0.4,1.4-0.8,1.9c-0.3,0.3-0.6,0.6-1,0.8c-0.5,0.3-1,0.5-1.5,0.6c-0.7,0.2-1.4,0.2-2.1,0.2h-6.5V18.8H375.6z M375.6,25.6
			c0.5,0,1-0.1,1.5-0.2c0.4-0.1,0.8-0.3,1.1-0.6c0.3-0.2,0.5-0.5,0.6-0.8c0.1-0.3,0.2-0.7,0.2-1c0-1.9-1.2-2.9-3.5-2.9h-5v5.5
			L375.6,25.6z M375.6,33c0.5,0,1,0,1.5-0.1c0.5-0.1,0.9-0.3,1.3-0.5c0.4-0.3,0.7-0.6,0.9-1c0.2-0.5,0.3-1,0.3-1.5
			c0.1-0.9-0.3-1.7-1-2.2c-0.9-0.5-1.9-0.8-3-0.7h-5V33L375.6,33z"/>
		<path class="st1" d="M390.9,18.8l6,15.4h-1.6l-1.9-4.8h-7l-1.9,4.8H383l6.2-15.4H390.9z M393,28.2l-3-7.9l-3.1,7.9H393z"/>
		<path class="st1" d="M409.1,18.8v1.2h-5.4v14.1h-1.5V20.1H397v-1.2H409.1z"/>
		<polygon class="st2" points="399.3,112.1 336,75.7 273,112.1 		"/>
		<polygon class="st3" points="336.2,2.6 336.2,75.6 399.6,111.9 		"/>
		<polygon class="st0" points="272.2,112.1 335.7,75.9 335.8,2.9 		"/>
		<polygon class="st4" points="336.1,46.9 310.6,90.6 362.1,90.6 		"/>
		<path class="st1" d="M197.8,90.2V69.9h-20.1v-8.5h20.1V41.4h8.6v20.1h20.1v8.5h-20.1v20.2H197.8z"/>
		<path class="st1" d="M506.1,62.7h-48.7v-8.5h48.7V62.7z M506.1,85.1h-48.7v-8.5h48.7V85.1z"/>
	</g>
</g>
<g>
	<path class="st1" d="M624.6,18.5c-0.2,0.8-1,1.2-1.9,1.4c9.3,12.7,26.6,27.2,41.5,34.8c-1.6,1.5-3.2,3.7-4.3,5.7
		c-15.1-8.8-32.3-23.4-41.2-35.8c-7.9,11.9-23.7,26.7-40.3,36.5c-0.9-1.4-2.7-3.7-4-5.1c16.8-9.4,33.4-25.2,40.9-38L624.6,18.5z
		 M622.1,82.1v16.8h38.7v6h-83v-6h37.6V82.1h-29.6v-5.9h29.6V60.3H590v-5.9h58.5v5.9h-26.4v15.9H652v5.9H622.1z"/>
	<path class="st1" d="M696.5,75.8c3.6,2.5,13.6,10.7,16,12.8l-3.8,4.9c-2.2-2.5-7.9-7.8-12.2-11.6v25.8h-6.3V81.1
		c-4.6,7.6-10.6,14.7-15.9,18.9c-1.1-1.5-3-3.6-4.3-4.7c6.8-4.5,14.3-13.5,19-22.4h-17.2v-5.7h18.4V57.1h-19.7v-5.7h11.8
		c-0.5-4.1-2.1-10.2-4.1-14.8l5.2-1.4c2.2,4.8,4,11,4.5,15.2l-3.6,1.1h16.1c-1.2-0.5-2.6-1-2.7-1c1.9-4.2,4.2-10.9,5.4-15.6l7.3,2.3
		c-0.2,0.6-0.9,0.9-1.9,1c-1.3,3.7-3.6,9.3-5.6,13.2h14v5.7h-19.5c-0.3,0.1-0.6,0.2-1,0.2v10h19V73h-19V75.8z M714.9,29.2v5.6h-42.5
		v-5.6h17.8V18.4l8.2,0.5c-0.1,0.7-0.6,1.2-1.8,1.3v8.9H714.9z M759.6,51.5v6h-11.3v50.1H742V57.5h-15.2v3.6
		c0,14.4-1.8,33.4-15.6,46.7c-0.8-1.4-3-3.6-4.5-4.5c12.6-12.1,14-28.7,14-42.3V27.6l4.7,1.5c10-2.9,20.7-6.8,26.8-10.4l6.4,4.9
		c-0.3,0.3-1,0.5-2,0.3c-7.1,3.6-18.9,7.5-29.8,10.2v17.4H759.6z"/>
	<path class="st1" d="M854.5,41.7H805c-0.4,5.4-0.9,11-1.6,16.7h34.3l1.4-0.2l3.8,0.7c-0.1,0.7-0.2,1.4-0.4,2
		c-2,28.9-3.9,39.6-7.8,43.5c-2.6,2.8-5.2,3.3-11.2,3.3c-3.5,0-8.3-0.2-13.1-0.5c-0.2-1.8-1.1-4.5-2.3-6.3c7.1,0.7,14,0.7,16.4,0.7
		c2.3,0,3.6-0.1,4.6-1.1c3-2.7,4.9-12.4,6.6-35.9h-33.5c-3.3,17.1-10.8,33.8-31,43.4c-1-1.6-2.9-3.9-4.6-5.2
		c27.2-12.3,30.1-38.2,31.3-61.1h-30.4v-6.2h39.7V18.2l8.5,0.6c-0.1,0.7-0.7,1.2-1.9,1.3v15.4h40.5V41.7z"/>
	<path class="st1" d="M950.6,83.2h-34.7c8.9,8,23.5,14.8,36.9,17.8c-1.3,1.2-3.3,3.7-4.1,5.4c-13.9-3.7-29.4-12-38.6-21.7v22.8h-6.4
		V85.3c-9.2,9.3-24.1,17.2-37.6,20.9c-0.9-1.5-2.7-3.9-4-5.2c13.2-3,27.6-9.9,36.3-17.8h-34.7v-5.6h40v-8.4l8.4,0.6
		c-0.1,0.7-0.6,1.2-1.9,1.3v6.4h40.6V83.2z M884.5,61l-6-2c2.8-3.1,6-7.1,9.4-11.3h-23.2v-5.5h27.5c2.4-3.3,4.8-6.4,6.8-9.3l7.5,2.4
		c-0.2,0.5-0.9,0.9-2.3,0.7c-1.3,1.9-3,4-4.6,6.2h50v5.5h-19.5c-2.6,5.3-6.1,9.7-11.4,13.3c9.9,2.6,19.1,5.4,25.8,8l-3.9,4.7
		c-6.9-2.7-17.4-6-28.6-8.9c-9.2,4.1-22.5,6.9-42.1,8.3c-0.3-1.4-1.2-3.8-2.1-5.2c15.5-1,26.9-2.8,35.2-5.4
		c-5.6-1.4-11.2-2.7-16.5-3.7L884.5,61z M873.5,31.4v8.4h-6v-14h36.2v-7.4l8.4,0.5c-0.1,0.8-0.7,1.2-1.9,1.3v5.6h37v14h-6.2v-8.4
		H873.5z M895.4,47.6c-1.8,2.3-3.6,4.6-5.5,6.8c6.7,1.2,13.9,2.9,21.1,4.6c5.7-3,9.3-6.7,11.8-11.4H895.4z"/>
</g>
</svg>
